ffmpeg version 3.2.14-1~deb9u1 Copyright (c) 2000-2019 the FFmpeg developers
  built with gcc 6.3.0 (Debian 6.3.0-18+deb9u1) 20170516
  configuration: --prefix=/usr --extra-version='1~deb9u1' --toolchain=hardened --libdir=/usr/lib/x86_64-linux-gnu --incdir=/usr/include/x86_64-linux-gnu --enable-gpl --disable-stripping --enable-avresample --enable-avisynth --enable-gnutls --enable-ladspa --enable-libass --enable-libbluray --enable-libbs2b --enable-libcaca --enable-libcdio --enable-libebur128 --enable-libflite --enable-libfontconfig --enable-libfreetype --enable-libfribidi --enable-libgme --enable-libgsm --enable-libmp3lame --enable-libopenjpeg --enable-libopenmpt --enable-libopus --enable-libpulse --enable-librubberband --enable-libshine --enable-libsnappy --enable-libsoxr --enable-libspeex --enable-libssh --enable-libtheora --enable-libtwolame --enable-libvorbis --enable-libvpx --enable-libwavpack --enable-libwebp --enable-libx265 --enable-libxvid --enable-libzmq --enable-libzvbi --enable-omx --enable-openal --enable-opengl --enable-sdl2 --enable-libdc1394 --enable-libiec61883 --enable-chromaprint --enable-frei0r --enable-libopencv --enable-libx264 --enable-shared
  libavutil      55. 34.101 / 55. 34.101
  libavcodec     57. 64.101 / 57. 64.101
  libavformat    57. 56.101 / 57. 56.101
  libavdevice    57.  1.100 / 57.  1.100
  libavfilter     6. 65.100 /  6. 65.100
  libavresample   3.  1.  0 /  3.  1.  0
  libswscale      4.  2.100 /  4.  2.100
  libswresample   2.  3.100 /  2.  3.100
  libpostproc    54.  1.100 / 54.  1.100
Input #0, avi, from '/home/titus/tst2/testavi.avi':
  Duration: 01:56:38.24, start: 0.000000, bitrate: 829 kb/s
    Stream #0:0: Video: mpeg4 (DX50 / 0x30355844), yuv420p, 720x304 [SAR 1:1 DAR 45:19], 720 kb/s, 25 fps, 25 tbr, 25 tbn, 30k tbc
    Metadata:
      title           : DVD2VIDEO
    Stream #0:1: Audio: mp3 (U[0][0][0] / 0x0055), 48000 Hz, stereo, s16p, 96 kb/s
    Metadata:
      title           : DVD2AUDIO00
[tcp @ 0x55b0f1601e60] Connection to tcp://localhost:1935 failed (Connection refused), trying next address
[libx264 @ 0x55b0f157ab20] using SAR=1/1
[libx264 @ 0x55b0f157ab20] using cpu capabilities: MMX2 SSE2Fast SSSE3 SSE4.2 AVX FMA3 AVX2 LZCNT BMI2
[libx264 @ 0x55b0f157ab20] profile Constrained Baseline, level 3.0
[libx264 @ 0x55b0f157ab20] 264 - core 148 r2748 97eaef2 - H.264/MPEG-4 AVC codec - Copyleft 2003-2016 - http://www.videolan.org/x264.html - options: cabac=0 ref=3 deblock=1:0:0 analyse=0x1:0x111 me=hex subme=7 psy=1 psy_rd=1.00:0.00 mixed_ref=1 me_range=16 chroma_me=1 trellis=1 8x8dct=0 cqm=0 deadzone=21,11 fast_pskip=1 chroma_qp_offset=-2 threads=6 lookahead_threads=1 sliced_threads=0 nr=0 decimate=1 interlaced=0 bluray_compat=0 constrained_intra=0 bframes=0 weightp=0 keyint=30 keyint_min=3 scenecut=40 intra_refresh=0 rc_lookahead=30 rc=crf mbtree=1 crf=23.0 qcomp=0.60 qpmin=0 qpmax=69 qpstep=4 ip_ratio=1.40 aq=1:1.00
Output #0, flv, to 'rtmp://localhost/show/UahyCaJa6g.m3u8':
  Metadata:
    encoder         : Lavf57.56.101
    Stream #0:0: Video: h264 (libx264) ([7][0][0][0] / 0x0007), yuv420p, 720x304 [SAR 1:1 DAR 45:19], q=-1--1, 25 fps, 1k tbn, 25 tbc
    Metadata:
      title           : DVD2VIDEO
      encoder         : Lavc57.64.101 libx264
    Side data:
      cpb: bitrate max/min/avg: 0/0/0 buffer size: 0 vbv_delay: -1
    Stream #0:1: Audio: aac (LC) ([10][0][0][0] / 0x000A), 48000 Hz, stereo, fltp, 128 kb/s
    Metadata:
      title           : DVD2AUDIO00
      encoder         : Lavc57.64.101 aac
Stream mapping:
  Stream #0:0 -> #0:0 (mpeg4 (native) -> h264 (libx264))
  Stream #0:1 -> #0:1 (mp3 (native) -> aac (native))
Press [q] to stop, [?] for help
frame=    9 fps=0.0 q=0.0 size=       0kB time=00:00:00.40 bitrate=   7.2kbits/s speed=0.801x    frame=   22 fps= 22 q=0.0 size=       0kB time=00:00:00.93 bitrate=   3.1kbits/s speed=0.929x    frame=   34 fps= 22 q=0.0 size=       0kB time=00:00:01.40 bitrate=   2.1kbits/s speed=0.931x    frame=   47 fps= 23 q=28.0 size=       8kB time=00:00:01.94 bitrate=  34.4kbits/s speed=0.963x    frame=   60 fps= 24 q=28.0 size=      17kB time=00:00:02.45 bitrate=  57.8kbits/s speed=0.972x    frame=   72 fps= 24 q=28.0 size=      30kB time=00:00:02.92 bitrate=  82.9kbits/s speed=0.965x    frame=   85 fps= 24 q=28.0 size=      46kB time=00:00:03.41 bitrate= 111.3kbits/s speed=0.967x    frame=   97 fps= 24 q=28.0 size=      69kB time=00:00:03.94 bitrate= 143.8kbits/s speed=0.979x    frame=  110 fps= 24 q=28.0 size=     101kB time=00:00:04.45 bitrate= 185.5kbits/s speed=0.983x    frame=  123 fps= 24 q=28.0 size=     135kB time=00:00:04.95 bitrate= 223.3kbits/s speed=0.983x    frame=  135 fps= 24 q=28.0 size=     169kB time=00:00:05.41 bitrate= 256.1kbits/s speed=0.978x    frame=  148 fps= 25 q=28.0 size=     205kB time=00:00:05.97 bitrate= 280.5kbits/s speed=0.989x    frame=  160 fps= 24 q=28.0 size=     235kB time=00:00:06.44 bitrate= 298.3kbits/s speed=0.984x    frame=  173 fps= 25 q=28.0 size=     268kB time=00:00:06.93 bitrate= 316.3kbits/s speed=0.984x    frame=  186 fps= 25 q=28.0 size=     299kB time=00:00:07.48 bitrate= 327.5kbits/s speed=0.991x    frame=  198 fps= 25 q=28.0 size=     326kB time=00:00:07.97 bitrate= 334.4kbits/s speed=0.989x    frame=  211 fps= 25 q=28.0 size=     347kB time=00:00:08.49 bitrate= 334.8kbits/s speed=0.991x    frame=  223 fps= 25 q=28.0 size=     371kB time=00:00:08.98 bitrate= 338.1kbits/s speed=0.99x    frame=  236 fps= 25 q=28.0 size=     391kB time=00:00:09.45 bitrate= 338.9kbits/s speed=0.987x    frame=  249 fps= 25 q=28.0 size=     414kB time=00:00:10.02 bitrate= 338.0kbits/s speed=0.995x    frame=  261 fps= 25 q=28.0 size=     439kB time=00:00:10.45 bitrate= 344.1kbits/s speed=0.988x    frame=  274 fps= 25 q=28.0 size=     462kB time=00:00:10.98 bitrate= 344.3kbits/s speed=0.991x    frame=  286 fps= 25 q=28.0 size=     488kB time=00:00:11.49 bitrate= 347.7kbits/s speed=0.992x    frame=  299 fps= 25 q=28.0 size=     519kB time=00:00:12.01 bitrate= 353.8kbits/s speed=0.993x    frame=  312 fps= 25 q=28.0 size=     545kB time=00:00:12.52 bitrate= 356.7kbits/s speed=0.994x    frame=  324 fps= 25 q=28.0 size=     576kB time=00:00:12.97 bitrate= 363.6kbits/s speed=0.99x    frame=  337 fps= 25 q=28.0 size=     613kB time=00:00:13.48 bitrate= 372.2kbits/s speed=0.99x    frame=  350 fps= 25 q=28.0 size=     650kB time=00:00:14.03 bitrate= 379.2kbits/s speed=0.994x    frame=  363 fps= 25 q=28.0 size=     680kB time=00:00:14.55 bitrate= 383.0kbits/s speed=0.995x    frame=  375 fps= 25 q=28.0 size=     711kB time=00:00:15.01 bitrate= 387.7kbits/s speed=0.993x    frame=  387 fps= 25 q=28.0 size=     740kB time=00:00:15.53 bitrate= 390.2kbits/s speed=0.993x    frame=  400 fps= 25 q=28.0 size=     770kB time=00:00:16.04 bitrate= 393.4kbits/s speed=0.994x    frame=  413 fps= 25 q=28.0 size=     805kB time=00:00:16.55 bitrate= 398.2kbits/s speed=0.994x    frame=  425 fps= 25 q=28.0 size=     834kB time=00:00:17.04 bitrate= 400.6kbits/s speed=0.994x    frame=  438 fps= 25 q=28.0 size=     867kB time=00:00:17.55 bitrate= 404.7kbits/s speed=0.994x    frame=  451 fps= 25 q=28.0 size=     895kB time=00:00:18.07 bitrate= 405.9kbits/s speed=0.995x    frame=  464 fps= 25 q=28.0 size=     924kB time=00:00:18.58 bitrate= 407.2kbits/s speed=0.995x    frame=  476 fps= 25 q=28.0 size=     951kB time=00:00:19.11 bitrate= 407.4kbits/s speed=0.996x    frame=  489 fps= 25 q=28.0 size=     978kB time=00:00:19.60 bitrate= 408.8kbits/s speed=0.996x    frame=  501 fps= 25 q=28.0 size=    1007kB time=00:00:20.11 bitrate= 409.9kbits/s speed=0.996x    frame=  514 fps= 25 q=28.0 size=    1032kB time=00:00:20.58 bitrate= 410.7kbits/s speed=0.994x    frame=  527 fps= 25 q=28.0 size=    1060kB time=00:00:21.14 bitrate= 410.8kbits/s speed=0.997x    frame=  539 fps= 25 q=28.0 size=    1089kB time=00:00:21.61 bitrate= 412.6kbits/s speed=0.996x    frame=  552 fps= 25 q=28.0 size=    1122kB time=00:00:22.10 bitrate= 416.0kbits/s speed=0.995x    frame=  565 fps= 25 q=28.0 size=    1151kB time=00:00:22.61 bitrate= 417.0kbits/s speed=0.996x    frame=  577 fps= 25 q=28.0 size=    1182kB time=00:00:23.08 bitrate= 419.6kbits/s speed=0.994x    frame=  590 fps= 25 q=28.0 size=    1213kB time=00:00:23.63 bitrate= 420.4kbits/s speed=0.997x    frame=  602 fps= 25 q=28.0 size=    1234kB time=00:00:24.10 bitrate= 419.4kbits/s speed=0.995x    frame=  615 fps= 25 q=28.0 size=    1264kB time=00:00:24.61 bitrate= 420.7kbits/s speed=0.995x    frame=  627 fps= 25 q=28.0 size=    1286kB time=00:00:25.13 bitrate= 419.2kbits/s speed=0.996x    frame=  640 fps= 25 q=28.0 size=    1304kB time=00:00:25.62 bitrate= 416.8kbits/s speed=0.995x    frame=  653 fps= 25 q=28.0 size=    1329kB time=00:00:26.13 bitrate= 416.6kbits/s speed=0.996x    frame=  665 fps= 25 q=25.0 size=    1343kB time=00:00:26.66 bitrate= 412.7kbits/s speed=0.997x    frame=  678 fps= 25 q=28.0 size=    1368kB time=00:00:27.17 bitrate= 412.2kbits/s speed=0.997x    frame=  691 fps= 25 q=28.0 size=    1440kB time=00:00:27.67 bitrate= 426.2kbits/s speed=0.997x    frame=  703 fps= 25 q=28.0 size=    1479kB time=00:00:28.18 bitrate= 430.0kbits/s speed=0.997x    frame=  716 fps= 25 q=28.0 size=    1509kB time=00:00:28.65 bitrate= 431.6kbits/s speed=0.996x    frame=  729 fps= 25 q=28.0 size=    1519kB time=00:00:29.20 bitrate= 426.0kbits/s speed=0.997x    frame=  741 fps= 25 q=28.0 size=    1555kB time=00:00:29.67 bitrate= 429.2kbits/s speed=0.996x    frame=  754 fps= 25 q=25.0 size=    1607kB time=00:00:30.18 bitrate= 436.0kbits/s speed=0.996x    frame=  767 fps= 25 q=28.0 size=    1628kB time=00:00:30.72 bitrate= 434.1kbits/s speed=0.997x    frame=  780 fps= 25 q=28.0 size=    1678kB time=00:00:31.21 bitrate= 440.4kbits/s speed=0.997x    frame=  792 fps= 25 q=28.0 size=    1722kB time=00:00:31.70 bitrate= 444.9kbits/s speed=0.996x    frame=  805 fps= 25 q=28.0 size=    1752kB time=00:00:32.21 bitrate= 445.5kbits/s speed=0.997x    frame=  817 fps= 25 q=28.0 size=    1769kB time=00:00:32.70 bitrate= 443.1kbits/s speed=0.996x    frame=  830 fps= 25 q=28.0 size=    1813kB time=00:00:33.23 bitrate= 446.9kbits/s speed=0.997x    frame=  843 fps= 25 q=28.0 size=    1829kB time=00:00:33.79 bitrate= 443.3kbits/s speed=0.998x    frame=  855 fps= 25 q=28.0 size=    1842kB time=00:00:34.26 bitrate= 440.4kbits/s speed=0.998x    frame=  868 fps= 25 q=28.0 size=    1862kB time=00:00:34.75 bitrate= 438.9kbits/s speed=0.997x    frame=  881 fps= 25 q=28.0 size=    1883kB time=00:00:35.28 bitrate= 437.2kbits/s speed=0.998x    frame=  893 fps= 25 q=28.0 size=    1898kB time=00:00:35.73 bitrate= 435.0kbits/s speed=0.996x    frame=  906 fps= 25 q=28.0 size=    1914kB time=00:00:36.28 bitrate= 432.0kbits/s speed=0.998x    frame=  919 fps= 25 q=28.0 size=    1928kB time=00:00:36.77 bitrate= 429.4kbits/s speed=0.997x    frame=  931 fps= 25 q=28.0 size=    1936kB time=00:00:37.27 bitrate= 425.6kbits/s speed=0.997x    frame=  944 fps= 25 q=28.0 size=    1966kB time=00:00:37.73 bitrate= 426.8kbits/s speed=0.996x    frame=  956 fps= 25 q=28.0 size=    2024kB time=00:00:38.25 bitrate= 433.5kbits/s speed=0.997x    frame=  969 fps= 25 q=28.0 size=    2115kB time=00:00:38.78 bitrate= 446.7kbits/s speed=0.998x    frame=  981 fps= 25 q=28.0 size=    2198kB time=00:00:39.27 bitrate= 458.5kbits/s speed=0.997x    frame=  993 fps= 25 q=28.0 size=    2236kB time=00:00:39.85 bitrate= 459.7kbits/s speed=0.999x    frame= 1007 fps= 25 q=28.0 size=    2295kB time=00:00:40.32 bitrate= 466.3kbits/s speed=0.998x    frame= 1019 fps= 25 q=28.0 size=    2314kB time=00:00:40.79 bitrate= 464.8kbits/s speed=0.997x    frame= 1032 fps= 25 q=28.0 size=    2368kB time=00:00:41.30 bitrate= 469.6kbits/s speed=0.998x    frame= 1044 fps= 25 q=28.0 size=    2408kB time=00:00:41.77 bitrate= 472.2kbits/s speed=0.997x    frame= 1057 fps= 25 q=28.0 size=    2468kB time=00:00:42.28 bitrate= 478.1kbits/s speed=0.997x    frame= 1069 fps= 25 q=28.0 size=    2487kB time=00:00:42.81 bitrate= 475.9kbits/s speed=0.998x    frame= 1082 fps= 25 q=28.0 size=    2508kB time=00:00:43.30 bitrate= 474.4kbits/s speed=0.997x    frame= 1095 fps= 25 q=28.0 size=    2581kB time=00:00:43.86 bitrate= 482.1kbits/s speed=0.999x    frame= 1107 fps= 25 q=28.0 size=    2604kB time=00:00:44.33 bitrate= 481.1kbits/s speed=0.998x    frame= 1120 fps= 25 q=28.0 size=    2660kB time=00:00:44.82 bitrate= 486.2kbits/s speed=0.998x    frame= 1133 fps= 25 q=28.0 size=    2683kB time=00:00:45.33 bitrate= 484.9kbits/s speed=0.998x    frame= 1145 fps= 25 q=28.0 size=    2740kB time=00:00:45.84 bitrate= 489.5kbits/s speed=0.998x    frame= 1158 fps= 25 q=28.0 size=    2758kB time=00:00:46.35 bitrate= 487.4kbits/s speed=0.998x    frame= 1170 fps= 25 q=25.0 size=    2776kB time=00:00:46.87 bitrate= 485.3kbits/s speed=0.998x    frame= 1183 fps= 25 q=28.0 size=    2832kB time=00:00:47.33 bitrate= 490.1kbits/s speed=0.998x    frame= 1195 fps= 25 q=28.0 size=    2851kB time=00:00:47.85 bitrate= 488.0kbits/s speed=0.998x    frame= 1208 fps= 25 q=28.0 size=    2912kB time=00:00:48.34 bitrate= 493.4kbits/s speed=0.998x    frame= 1221 fps= 25 q=28.0 size=    2937kB time=00:00:48.85 bitrate= 492.5kbits/s speed=0.998x    frame= 1233 fps= 25 q=28.0 size=    2958kB time=00:00:49.36 bitrate= 490.9kbits/s speed=0.998x    frame= 1246 fps= 25 q=28.0 size=    3012kB time=00:00:49.92 bitrate= 494.3kbits/s speed=0.999x    frame= 1258 fps= 25 q=28.0 size=    3030kB time=00:00:50.36 bitrate= 492.9kbits/s speed=0.998x    frame= 1271 fps= 25 q=28.0 size=    3107kB time=00:00:50.88 bitrate= 500.3kbits/s speed=0.998x    frame= 1284 fps= 25 q=28.0 size=    3152kB time=00:00:51.37 bitrate= 502.6kbits/s speed=0.998x    frame= 1296 fps= 25 q=28.0 size=    3224kB time=00:00:51.88 bitrate= 509.1kbits/s speed=0.998x    frame= 1309 fps= 25 q=28.0 size=    3246kB time=00:00:52.37 bitrate= 507.7kbits/s speed=0.998x    frame= 1322 fps= 25 q=28.0 size=    3267kB time=00:00:52.90 bitrate= 505.8kbits/s speed=0.998x    frame= 1334 fps= 25 q=28.0 size=    3318kB time=00:00:53.39 bitrate= 509.0kbits/s speed=0.998x    frame= 1347 fps= 25 q=28.0 size=    3349kB time=00:00:53.86 bitrate= 509.3kbits/s speed=0.997x    frame= 1360 fps= 25 q=28.0 size=    3426kB time=00:00:54.37 bitrate= 516.1kbits/s speed=0.997x    frame= 1372 fps= 25 q=28.0 size=    3486kB time=00:00:54.89 bitrate= 520.3kbits/s speed=0.997x    frame= 1385 fps= 25 q=28.0 size=    3576kB time=00:00:55.40 bitrate= 528.7kbits/s speed=0.998x    frame= 1398 fps= 25 q=28.0 size=    3640kB time=00:00:55.97 bitrate= 532.7kbits/s speed=0.999x    frame= 1410 fps= 25 q=28.0 size=    3703kB time=00:00:56.42 bitrate= 537.6kbits/s speed=0.998x    frame= 1423 fps= 25 q=28.0 size=    3797kB time=00:00:56.87 bitrate= 546.9kbits/s speed=0.997x    frame= 1436 fps= 25 q=25.0 size=    3864kB time=00:00:57.45 bitrate= 550.9kbits/s speed=0.998x    frame= 1449 fps= 25 q=28.0 size=    3959kB time=00:00:57.98 bitrate= 559.3kbits/s speed=0.999x    frame= 1461 fps= 25 q=28.0 size=    4019kB time=00:00:58.45 bitrate= 563.3kbits/s speed=0.998x    frame= 1473 fps= 25 q=28.0 size=    4112kB time=00:00:58.92 bitrate= 571.7kbits/s speed=0.997x    frame= 1486 fps= 25 q=28.0 size=    4176kB time=00:00:59.47 bitrate= 575.1kbits/s speed=0.998x    frame= 1499 fps= 25 q=28.0 size=    4240kB time=00:00:59.99 bitrate= 579.0kbits/s speed=0.998x    frame= 1512 fps= 25 q=28.0 size=    4329kB time=00:01:00.52 bitrate= 585.9kbits/s speed=0.999x    frame= 1524 fps= 25 q=28.0 size=    4391kB time=00:01:00.97 bitrate= 590.0kbits/s speed=0.998x    frame= 1537 fps= 25 q=28.0 size=    4487kB time=00:01:01.48 bitrate= 597.8kbits/s speed=0.998x    frame= 1550 fps= 25 q=28.0 size=    4551kB time=00:01:02.01 bitrate= 601.2kbits/s speed=0.998x    frame= 1562 fps= 25 q=28.0 size=    4635kB time=00:01:02.55 bitrate= 607.1kbits/s speed=0.999x    frame= 1575 fps= 25 q=28.0 size=    4698kB time=00:01:03.04 bitrate= 610.5kbits/s speed=0.999x    frame= 1587 fps= 25 q=28.0 size=    4757kB time=00:01:03.53 bitrate= 613.5kbits/s speed=0.998x    frame= 1600 fps= 25 q=28.0 size=    4861kB time=00:01:04.02 bitrate= 622.0kbits/s speed=0.998x    frame= 1613 fps= 25 q=28.0 size=    4926kB time=00:01:04.55 bitrate= 625.1kbits/s speed=0.999x    frame= 1625 fps= 25 q=25.0 size=    4978kB time=00:01:05.00 bitrate= 627.3kbits/s speed=0.998x    frame= 1638 fps= 25 q=28.0 size=    5056kB time=00:01:05.55 bitrate= 631.8kbits/s speed=0.999x    frame= 1651 fps= 25 q=28.0 size=    5112kB time=00:01:06.07 bitrate= 633.9kbits/s speed=0.999x    frame= 1664 fps= 25 q=28.0 size=    5192kB time=00:01:06.60 bitrate= 638.6kbits/s speed=0.999x    frame= 1676 fps= 25 q=28.0 size=    5244kB time=00:01:07.05 bitrate= 640.7kbits/s speed=0.998x    frame= 1689 fps= 25 q=28.0 size=    5303kB time=00:01:07.58 bitrate= 642.8kbits/s speed=0.999x    frame= 1701 fps= 25 q=28.0 size=    5384kB time=00:01:08.05 bitrate= 648.1kbits/s speed=0.998x    frame= 1714 fps= 25 q=28.0 size=    5454kB time=00:01:08.60 bitrate= 651.3kbits/s speed=0.999x    frame= 1726 fps= 25 q=28.0 size=    5542kB time=00:01:09.09 bitrate= 657.1kbits/s speed=0.999x    frame= 1739 fps= 25 q=28.0 size=    5615kB time=00:01:09.61 bitrate= 660.8kbits/s speed=0.999x    frame= 1751 fps= 25 q=28.0 size=    5700kB time=00:01:10.10 bitrate= 666.1kbits/s speed=0.999x    frame= 1764 fps= 25 q=28.0 size=    5766kB time=00:01:10.61 bitrate= 668.9kbits/s speed=0.999x    frame= 1776 fps= 25 q=28.0 size=    5825kB time=00:01:11.06 bitrate= 671.5kbits/s speed=0.998x    frame= 1789 fps= 25 q=28.0 size=    5915kB time=00:01:11.53 bitrate= 677.4kbits/s speed=0.998x    frame= 1802 fps= 25 q=28.0 size=    5985kB time=00:01:12.10 bitrate= 679.9kbits/s speed=0.999x    frame= 1814 fps= 25 q=28.0 size=    6066kB time=00:01:12.57 bitrate= 684.7kbits/s speed=0.998x    frame= 1827 fps= 25 q=28.0 size=    6132kB time=00:01:13.06 bitrate= 687.5kbits/s speed=0.998x    frame= 1840 fps= 25 q=28.0 size=    6221kB time=00:01:13.57 bitrate= 692.7kbits/s speed=0.998x    frame= 1852 fps= 25 q=28.0 size=    6259kB time=00:01:14.11 bitrate= 691.9kbits/s speed=0.999x    frame= 1865 fps= 25 q=28.0 size=    6361kB time=00:01:14.64 bitrate= 698.0kbits/s speed=0.999x    frame= 1877 fps= 25 q=28.0 size=    6438kB time=00:01:15.09 bitrate= 702.3kbits/s speed=0.998x    frame= 1890 fps= 25 q=28.0 size=    6553kB time=00:01:15.60 bitrate= 710.1kbits/s speed=0.998x    frame= 1903 fps= 25 q=28.0 size=    6645kB time=00:01:16.13 bitrate= 714.9kbits/s speed=0.999x    frame= 1916 fps= 25 q=28.0 size=    6758kB time=00:01:16.65 bitrate= 722.3kbits/s speed=0.999x    frame= 1928 fps= 25 q=28.0 size=    6850kB time=00:01:17.14 bitrate= 727.4kbits/s speed=0.999x    frame= 1941 fps= 25 q=28.0 size=    6950kB time=00:01:17.65 bitrate= 733.2kbits/s speed=0.999x    frame= 1953 fps= 25 q=28.0 size=    7034kB time=00:01:18.14 bitrate= 737.4kbits/s speed=0.998x    frame= 1966 fps= 25 q=28.0 size=    7073kB time=00:01:18.67 bitrate= 736.4kbits/s speed=0.999x    frame= 1978 fps= 25 q=28.0 size=    7123kB time=00:01:19.16 bitrate= 737.1kbits/s speed=0.999x    frame= 1991 fps= 25 q=28.0 size=    7163kB time=00:01:19.68 bitrate= 736.4kbits/s speed=0.999x    frame= 2004 fps= 25 q=28.0 size=    7200kB time=00:01:20.17 bitrate= 735.7kbits/s speed=0.999x    frame= 2017 fps= 25 q=28.0 size=    7260kB time=00:01:20.68 bitrate= 737.2kbits/s speed=0.999x    frame= 2029 fps= 25 q=28.0 size=    7308kB time=00:01:21.17 bitrate= 737.6kbits/s speed=0.999x    frame= 2041 fps= 25 q=28.0 size=    7363kB time=00:01:21.66 bitrate= 738.6kbits/s speed=0.998x    frame= 2054 fps= 25 q=28.0 size=    7412kB time=00:01:22.19 bitrate= 738.7kbits/s speed=0.999x    frame= 2067 fps= 25 q=28.0 size=    7461kB time=00:01:22.71 bitrate= 739.0kbits/s speed=0.999x    frame= 2079 fps= 25 q=28.0 size=    7515kB time=00:01:23.20 bitrate= 739.9kbits/s speed=0.999x    frame= 2092 fps= 25 q=28.0 size=    7584kB time=00:01:23.71 bitrate= 742.2kbits/s speed=0.999x    frame= 2105 fps= 25 q=28.0 size=    7651kB time=00:01:24.20 bitrate= 744.4kbits/s speed=0.999x    frame= 2117 fps= 25 q=28.0 size=    7720kB time=00:01:24.73 bitrate= 746.4kbits/s speed=0.999x    frame= 2130 fps= 25 q=28.0 size=    7781kB time=00:01:25.27 bitrate= 747.5kbits/s speed=0.999x    frame= 2143 fps= 25 q=28.0 size=    7838kB time=00:01:25.78 bitrate= 748.5kbits/s speed=0.999x    frame= 2155 fps= 25 q=28.0 size=    7905kB time=00:01:26.25 bitrate= 750.8kbits/s speed=0.999x    frame= 2168 fps= 25 q=28.0 size=    7975kB time=00:01:26.74 bitrate= 753.2kbits/s speed=0.999x    frame= 2180 fps= 25 q=28.0 size=    8054kB time=00:01:27.23 bitrate= 756.3kbits/s speed=0.999x    frame= 2193 fps= 25 q=28.0 size=    8136kB time=00:01:27.74 bitrate= 759.6kbits/s speed=0.999x    frame= 2206 fps= 25 q=28.0 size=    8227kB time=00:01:28.27 bitrate= 763.5kbits/s speed=0.999x    frame= 2219 fps= 25 q=25.0 size=    8309kB time=00:01:28.74 bitrate= 767.0kbits/s speed=0.999x    frame= 2231 fps= 25 q=28.0 size=    8403kB time=00:01:29.30 bitrate= 770.8kbits/s speed=0.999x    frame= 2244 fps= 25 q=28.0 size=    8497kB time=00:01:29.81 bitrate= 775.1kbits/s speed=0.999x    frame= 2256 fps= 25 q=28.0 size=    8595kB time=00:01:30.26 bitrate= 780.1kbits/s speed=0.999x    frame= 2269 fps= 25 q=28.0 size=    8672kB time=00:01:30.77 bitrate= 782.6kbits/s speed=0.999x    frame= 2281 fps= 25 q=28.0 size=    8722kB time=00:01:31.26 bitrate= 782.9kbits/s speed=0.999x    frame= 2294 fps= 25 q=28.0 size=    8771kB time=00:01:31.81 bitrate= 782.6kbits/s speed=0.999x    frame= 2307 fps= 25 q=28.0 size=    8817kB time=00:01:32.31 bitrate= 782.5kbits/s speed=0.999x    frame= 2319 fps= 25 q=28.0 size=    8876kB time=00:01:32.77 bitrate= 783.7kbits/s speed=0.999x    frame= 2332 fps= 25 q=28.0 size=    8999kB time=00:01:33.22 bitrate= 790.8kbits/s speed=0.998x    frame= 2344 fps= 25 q=28.0 size=    9084kB time=00:01:33.71 bitrate= 794.1kbits/s speed=0.998x    frame= 2357 fps= 25 q=28.0 size=    9160kB time=00:01:34.27 bitrate= 796.0kbits/s speed=0.999x    frame= 2370 fps= 25 q=25.0 size=    9252kB time=00:01:34.74 bitrate= 800.0kbits/s speed=0.998x    frame= 2382 fps= 25 q=28.0 size=    9393kB time=00:01:35.33 bitrate= 807.1kbits/s speed=0.999x    frame= 2395 fps= 25 q=28.0 size=    9544kB time=00:01:35.80 bitrate= 816.1kbits/s speed=0.999x    frame= 2408 fps= 25 q=28.0 size=    9753kB time=00:01:36.29 bitrate= 829.7kbits/s speed=0.999x    frame= 2420 fps= 25 q=28.0 size=    9863kB time=00:01:36.81 bitrate= 834.6kbits/s speed=0.999x    frame= 2433 fps= 25 q=25.0 size=    9991kB time=00:01:37.36 bitrate= 840.6kbits/s speed=0.999x    frame= 2445 fps= 25 q=28.0 size=   10130kB time=00:01:37.77 bitrate= 848.8kbits/s speed=0.998x    frame= 2458 fps= 25 q=28.0 size=   10242kB time=00:01:38.34 bitrate= 853.2kbits/s speed=0.999x    frame= 2470 fps= 25 q=28.0 size=   10376kB time=00:01:38.85 bitrate= 859.8kbits/s speed=0.999x    frame= 2483 fps= 25 q=28.0 size=   10403kB time=00:01:39.37 bitrate= 857.6kbits/s speed=0.999x    frame= 2496 fps= 25 q=28.0 size=   10500kB time=00:01:39.88 bitrate= 861.2kbits/s speed=0.999x    frame= 2508 fps= 25 q=28.0 size=   10627kB time=00:01:40.37 bitrate= 867.3kbits/s speed=0.999x    frame= 2521 fps= 25 q=28.0 size=   10674kB time=00:01:40.84 bitrate= 867.1kbits/s speed=0.999x    frame= 2534 fps= 25 q=28.0 size=   10764kB time=00:01:41.39 bitrate= 869.6kbits/s speed=0.999x    frame= 2547 fps= 25 q=28.0 size=   10821kB time=00:01:41.91 bitrate= 869.8kbits/s speed=0.999x    frame= 2559 fps= 25 q=28.0 size=   10906kB time=00:01:42.37 bitrate= 872.7kbits/s speed=0.999x    frame= 2572 fps= 25 q=28.0 size=   11041kB time=00:01:42.91 bitrate= 878.9kbits/s speed=0.999x    frame= 2584 fps= 25 q=26.0 size=   11085kB time=00:01:43.40 bitrate= 878.2kbits/s speed=0.999x    frame= 2597 fps= 25 q=28.0 size=   11164kB time=00:01:43.91 bitrate= 880.1kbits/s speed=0.999x    frame= 2609 fps= 25 q=25.0 size=   11198kB time=00:01:44.42 bitrate= 878.5kbits/s speed=0.999x    frame= 2622 fps= 25 q=28.0 size=   11283kB time=00:01:44.93 bitrate= 880.8kbits/s speed=0.999x    frame= 2634 fps= 25 q=28.0 size=   11338kB time=00:01:45.45 bitrate= 880.8kbits/s speed=0.999x    frame= 2647 fps= 25 q=28.0 size=   11417kB time=00:01:45.96 bitrate= 882.7kbits/s speed=0.999x    frame= 2660 fps= 25 q=28.0 size=   11477kB time=00:01:46.43 bitrate= 883.3kbits/s speed=0.999x    frame= 2672 fps= 25 q=28.0 size=   11546kB time=00:01:46.94 bitrate= 884.5kbits/s speed=0.999x    frame= 2685 fps= 25 q=28.0 size=   11616kB time=00:01:47.47 bitrate= 885.3kbits/s speed=0.999x    frame= 2698 fps= 25 q=28.0 size=   11692kB time=00:01:47.94 bitrate= 887.3kbits/s speed=0.999x    frame= 2710 fps= 25 q=28.0 size=   11748kB time=00:01:48.43 bitrate= 887.5kbits/s speed=0.999x    frame= 2723 fps= 25 q=25.0 size=   11808kB time=00:01:48.95 bitrate= 887.8kbits/s speed=0.999x    frame= 2736 fps= 25 q=28.0 size=   11883kB time=00:01:49.46 bitrate= 889.3kbits/s speed=0.999x    frame= 2748 fps= 25 q=28.0 size=   11960kB time=00:01:49.97 bitrate= 890.9kbits/s speed=0.999x    frame= 2761 fps= 25 q=28.0 size=   12047kB time=00:01:50.44 bitrate= 893.6kbits/s speed=0.999x    frame= 2773 fps= 25 q=28.0 size=   12131kB time=00:01:50.93 bitrate= 895.8kbits/s speed=0.999x    frame= 2786 fps= 25 q=28.0 size=   12225kB time=00:01:51.46 bitrate= 898.4kbits/s speed=0.999x    frame= 2799 fps= 25 q=28.0 size=   12315kB time=00:01:51.97 bitrate= 900.9kbits/s speed=0.999x    frame= 2811 fps= 25 q=28.0 size=   12407kB time=00:01:52.47 bitrate= 903.7kbits/s speed=0.999x    frame= 2824 fps= 25 q=28.0 size=   12487kB time=00:01:52.98 bitrate= 905.4kbits/s speed=0.999x    frame= 2837 fps= 25 q=28.0 size=   12546kB time=00:01:53.49 bitrate= 905.6kbits/s speed=0.999x    frame= 2849 fps= 25 q=28.0 size=   12587kB time=00:01:54.00 bitrate= 904.5kbits/s speed=0.999x    frame= 2862 fps= 25 q=28.0 size=   12673kB time=00:01:54.53 bitrate= 906.4kbits/s speed=0.999x    frame= 2874 fps= 25 q=28.0 size=   12757kB time=00:01:55.00 bitrate= 908.6kbits/s speed=0.999x    frame= 2887 fps= 25 q=28.0 size=   12840kB time=00:01:55.49 bitrate= 910.7kbits/s speed=0.999x    frame= 2900 fps= 25 q=28.0 size=   12913kB time=00:01:56.01 bitrate= 911.9kbits/s speed=0.999x    frame= 2912 fps= 25 q=28.0 size=   12980kB time=00:01:56.50 bitrate= 912.7kbits/s speed=0.999x    frame= 2925 fps= 25 q=28.0 size=   13037kB time=00:01:56.97 bitrate= 913.1kbits/s speed=0.999x    frame= 2938 fps= 25 q=28.0 size=   13106kB time=00:01:57.54 bitrate= 913.4kbits/s speed=0.999x    frame= 2950 fps= 25 q=28.0 size=   13147kB time=00:01:58.05 bitrate= 912.2kbits/s speed=0.999x    frame= 2963 fps= 25 q=28.0 size=   13183kB time=00:01:58.57 bitrate= 910.8kbits/s speed=0.999x    frame= 2976 fps= 25 q=28.0 size=   13267kB time=00:01:59.06 bitrate= 912.8kbits/s speed=0.999x    frame= 2988 fps= 25 q=28.0 size=   13308kB time=00:01:59.57 bitrate= 911.8kbits/s speed=0.999x    frame= 3001 fps= 25 q=25.0 size=   13365kB time=00:02:00.04 bitrate= 912.0kbits/s speed=0.999x    frame= 3013 fps= 25 q=28.0 size=   13419kB time=00:02:00.57 bitrate= 911.7kbits/s speed=0.999x    frame= 3026 fps= 25 q=28.0 size=   13474kB time=00:02:01.06 bitrate= 911.7kbits/s speed=0.999x    frame= 3039 fps= 25 q=28.0 size=   13530kB time=00:02:01.57 bitrate= 911.6kbits/s speed=0.999x    frame= 3051 fps= 25 q=28.0 size=   13566kB time=00:02:02.09 bitrate= 910.2kbits/s speed=0.999x    frame= 3064 fps= 25 q=28.0 size=   13620kB time=00:02:02.51 bitrate= 910.7kbits/s speed=0.999x    frame= 3077 fps= 25 q=28.0 size=   13657kB time=00:02:03.09 bitrate= 908.9kbits/s speed=0.999x    frame= 3089 fps= 25 q=28.0 size=   13697kB time=00:02:03.60 bitrate= 907.8kbits/s speed=0.999x    frame= 3102 fps= 25 q=28.0 size=   13752kB time=00:02:04.07 bitrate= 908.0kbits/s speed=0.999x    frame= 3115 fps= 25 q=28.0 size=   13871kB time=00:02:04.63 bitrate= 911.8kbits/s speed=0.999x    frame= 3127 fps= 25 q=28.0 size=   13962kB time=00:02:05.09 bitrate= 914.3kbits/s speed=0.999x    frame= 3140 fps= 25 q=28.0 size=   14076kB time=00:02:05.61 bitrate= 918.0kbits/s speed=0.999x    frame= 3153 fps= 25 q=28.0 size=   14165kB time=00:02:06.14 bitrate= 919.9kbits/s speed=0.999x    frame= 3166 fps= 25 q=28.0 size=   14239kB time=00:02:06.63 bitrate= 921.1kbits/s speed=0.999x    frame= 3178 fps= 25 q=26.0 size=   14326kB time=00:02:07.19 bitrate= 922.7kbits/s speed=   1x    frame= 3191 fps= 25 q=28.0 size=   14425kB time=00:02:07.68 bitrate= 925.5kbits/s speed=0.999x    frame= 3203 fps= 25 q=28.0 size=   14498kB time=00:02:08.15 bitrate= 926.8kbits/s speed=0.999x    frame= 3216 fps= 25 q=28.0 size=   14590kB time=00:02:08.66 bitrate= 928.9kbits/s speed=0.999x    frame= 3229 fps= 25 q=28.0 size=   14656kB time=00:02:09.21 bitrate= 929.1kbits/s speed=   1x    frame= 3241 fps= 25 q=28.0 size=   14734kB time=00:02:09.66 bitrate= 930.9kbits/s speed=0.999x    frame= 3254 fps= 25 q=28.0 size=   14803kB time=00:02:10.19 bitrate= 931.4kbits/s speed=0.999x    frame= 3267 fps= 25 q=28.0 size=   14906kB time=00:02:10.71 bitrate= 934.2kbits/s speed=0.999x    frame= 3279 fps= 25 q=28.0 size=   14973kB time=00:02:11.22 bitrate= 934.8kbits/s speed=0.999x    frame= 3292 fps= 25 q=28.0 size=   15057kB time=00:02:11.71 bitrate= 936.5kbits/s speed=0.999x    frame= 3304 fps= 25 q=28.0 size=   15114kB time=00:02:12.18 bitrate= 936.7kbits/s speed=0.999x    frame= 3317 fps= 25 q=28.0 size=   15180kB time=00:02:12.69 bitrate= 937.2kbits/s speed=0.999x    frame= 3329 fps= 25 q=28.0 size=   15267kB time=00:02:13.24 bitrate= 938.6kbits/s speed=   1x    frame= 3342 fps= 25 q=28.0 size=   15348kB time=00:02:13.71 bitrate= 940.2kbits/s speed=0.999x    frame= 3355 fps= 25 q=28.0 size=   15417kB time=00:02:14.23 bitrate= 940.9kbits/s speed=0.999x    frame= 3367 fps= 25 q=28.0 size=   15487kB time=00:02:14.69 bitrate= 941.9kbits/s speed=0.999x    frame= 3380 fps= 25 q=28.0 size=   15562kB time=00:02:15.25 bitrate= 942.5kbits/s speed=0.999x    frame= 3392 fps= 25 q=28.0 size=   15621kB time=00:02:15.70 bitrate= 943.0kbits/s speed=0.999x    frame= 3405 fps= 25 q=28.0 size=   15672kB time=00:02:16.21 bitrate= 942.5kbits/s speed=0.999x    frame= 3418 fps= 25 q=28.0 size=   15723kB time=00:02:16.74 bitrate= 941.9kbits/s speed=0.999x    frame= 3431 fps= 25 q=28.0 size=   15797kB time=00:02:17.28 bitrate= 942.7kbits/s speed=0.999x    frame= 3443 fps= 25 q=28.0 size=   15880kB time=00:02:17.75 bitrate= 944.4kbits/s speed=0.999x    frame= 3456 fps= 25 q=28.0 size=   15979kB time=00:02:18.24 bitrate= 946.9kbits/s speed=0.999x    frame= 3468 fps= 25 q=28.0 size=   16048kB time=00:02:18.73 bitrate= 947.7kbits/s speed=0.999x    frame= 3481 fps= 25 q=28.0 size=   16117kB time=00:02:19.28 bitrate= 947.9kbits/s speed=0.999x    frame= 3493 fps= 25 q=28.0 size=   16200kB time=00:02:19.75 bitrate= 949.6kbits/s speed=0.999x    frame= 3506 fps= 25 q=28.0 size=   16305kB time=00:02:20.26 bitrate= 952.3kbits/s speed=0.999x    frame= 3519 fps= 25 q=28.0 size=   16335kB time=00:02:20.77 bitrate= 950.5kbits/s speed=0.999x    frame= 3531 fps= 25 q=28.0 size=   16356kB time=00:02:21.22 bitrate= 948.7kbits/s speed=0.999x    frame= 3544 fps= 25 q=28.0 size=   16419kB time=00:02:21.78 bitrate= 948.7kbits/s speed=0.999x    frame= 3556 fps= 25 q=28.0 size=   16494kB time=00:02:22.29 bitrate= 949.6kbits/s speed=0.999x    frame= 3569 fps= 25 q=28.0 size=   16550kB time=00:02:22.76 bitrate= 949.6kbits/s speed=0.999x    frame= 3581 fps= 25 q=28.0 size=   16613kB time=00:02:23.27 bitrate= 949.9kbits/s speed=0.999x    frame= 3594 fps= 25 q=28.0 size=   16658kB time=00:02:23.72 bitrate= 949.5kbits/s speed=0.999x    frame= 3606 fps= 25 q=28.0 size=   16698kB time=00:02:24.25 bitrate= 948.3kbits/s speed=0.999x    frame= 3619 fps= 25 q=28.0 size=   16777kB time=00:02:24.79 bitrate= 949.2kbits/s speed=0.999x    frame= 3632 fps= 25 q=28.0 size=   16841kB time=00:02:25.25 bitrate= 949.7kbits/s speed=0.999x    frame= 3644 fps= 25 q=28.0 size=   16949kB time=00:02:25.79 bitrate= 952.4kbits/s speed=0.999x    frame= 3657 fps= 25 q=28.0 size=   17015kB time=00:02:26.26 bitrate= 953.0kbits/s speed=0.999x    frame= 3670 fps= 25 q=28.0 size=   17117kB time=00:02:26.83 bitrate= 954.9kbits/s speed=0.999x    frame= 3682 fps= 25 q=28.0 size=   17174kB time=00:02:27.35 bitrate= 954.8kbits/s speed=   1x    frame= 3695 fps= 25 q=25.0 size=   17235kB time=00:02:27.84 bitrate= 955.0kbits/s speed=0.999x    frame= 3707 fps= 25 q=28.0 size=   17309kB time=00:02:28.31 bitrate= 956.0kbits/s speed=0.999x    frame= 3720 fps= 25 q=28.0 size=   17417kB time=00:02:28.82 bitrate= 958.7kbits/s speed=0.999x    frame= 3732 fps= 25 q=28.0 size=   17501kB time=00:02:29.29 bitrate= 960.3kbits/s speed=0.999x    frame= 3745 fps= 25 q=26.0 size=   17686kB time=00:02:29.80 bitrate= 967.2kbits/s speed=0.999x    frame= 3757 fps= 25 q=28.0 size=   17780kB time=00:02:30.31 bitrate= 969.0kbits/s speed=0.999x    frame= 3770 fps= 25 q=28.0 size=   17873kB time=00:02:30.82 bitrate= 970.7kbits/s speed=0.999x    frame= 3783 fps= 25 q=28.0 size=   17967kB time=00:02:31.38 bitrate= 972.3kbits/s speed=   1x    frame= 3795 fps= 25 q=28.0 size=   18072kB time=00:02:31.85 bitrate= 975.0kbits/s speed=0.999x    frame= 3808 fps= 25 q=28.0 size=   18143kB time=00:02:32.34 bitrate= 975.6kbits/s speed=0.999x    frame= 3821 fps= 25 q=28.0 size=   18211kB time=00:02:32.85 bitrate= 976.0kbits/s speed=0.999x    frame= 3833 fps= 25 q=28.0 size=   18298kB time=00:02:33.36 bitrate= 977.4kbits/s speed=0.999x    frame= 3846 fps= 25 q=25.0 size=   18388kB time=00:02:33.87 bitrate= 978.9kbits/s speed=0.999x    frame= 3859 fps= 25 q=28.0 size=   18512kB time=00:02:34.39 bitrate= 982.3kbits/s speed=0.999x    frame= 3871 fps= 25 q=28.0 size=   18602kB time=00:02:34.85 bitrate= 984.0kbits/s speed=0.999x    frame= 3884 fps= 25 q=28.0 size=   18705kB time=00:02:35.41 bitrate= 985.9kbits/s speed=   1x    frame= 3896 fps= 25 q=28.0 size=   18788kB time=00:02:35.88 bitrate= 987.3kbits/s speed=0.999x    frame= 3909 fps= 25 q=28.0 size=   18890kB time=00:02:36.37 bitrate= 989.6kbits/s speed=0.999x    frame= 3922 fps= 25 q=28.0 size=   18978kB time=00:02:36.90 bitrate= 990.8kbits/s speed=0.999x    frame= 3934 fps= 25 q=28.0 size=   19076kB time=00:02:37.44 bitrate= 992.6kbits/s speed=   1x    frame= 3947 fps= 25 q=28.0 size=   19168kB time=00:02:37.86 bitrate= 994.7kbits/s speed=0.999x    frame= 3959 fps= 25 q=28.0 size=   19254kB time=00:02:38.42 bitrate= 995.6kbits/s speed=0.999x    frame= 3972 fps= 25 q=26.0 size=   19331kB time=00:02:38.89 bitrate= 996.7kbits/s speed=0.999x    frame= 3985 fps= 25 q=28.0 size=   19391kB time=00:02:39.44 bitrate= 996.3kbits/s speed=0.999x    frame= 3997 fps= 25 q=28.0 size=   19432kB time=00:02:39.91 bitrate= 995.4kbits/s speed=0.999x    frame= 4010 fps= 25 q=28.0 size=   19473kB time=00:02:40.40 bitrate= 994.5kbits/s speed=0.999x    frame= 4023 fps= 25 q=28.0 size=   19531kB time=00:02:40.93 bitrate= 994.2kbits/s speed=0.999x    frame= 4035 fps= 25 q=28.0 size=   19577kB time=00:02:41.47 bitrate= 993.2kbits/s speed=   1x    frame= 4048 fps= 25 q=28.0 size=   19629kB time=00:02:41.94 bitrate= 993.0kbits/s speed=0.999x    frame= 4060 fps= 25 q=28.0 size=   19691kB time=00:02:42.43 bitrate= 993.1kbits/s speed=0.999x    frame= 4073 fps= 25 q=28.0 size=   19766kB time=00:02:42.92 bitrate= 993.9kbits/s speed=0.999x    frame= 4085 fps= 25 q=28.0 size=   19809kB time=00:02:43.43 bitrate= 992.9kbits/s speed=0.999x    frame= 4098 fps= 25 q=28.0 size=   19875kB time=00:02:43.96 bitrate= 993.0kbits/s speed=0.999x    frame= 4111 fps= 25 q=28.0 size=   19917kB time=00:02:44.45 bitrate= 992.1kbits/s speed=0.999x    frame= 4123 fps= 25 q=28.0 size=   19955kB time=00:02:44.97 bitrate= 990.9kbits/s speed=0.999x    frame= 4136 fps= 25 q=28.0 size=   20021kB time=00:02:45.50 bitrate= 991.0kbits/s speed=   1x    frame= 4149 fps= 25 q=25.0 size=   20057kB time=00:02:45.97 bitrate= 990.0kbits/s speed=0.999x    frame= 4161 fps= 25 q=28.0 size=   20107kB time=00:02:46.48 bitrate= 989.4kbits/s speed=0.999x    frame= 4174 fps= 25 q=28.0 size=   20144kB time=00:02:46.99 bitrate= 988.2kbits/s speed=0.999x    frame= 4187 fps= 25 q=28.0 size=   20194kB time=00:02:47.51 bitrate= 987.6kbits/s speed=0.999x    frame= 4199 fps= 25 q=28.0 size=   20224kB time=00:02:48.02 bitrate= 986.0kbits/s speed=0.999x    frame= 4212 fps= 25 q=28.0 size=   20289kB time=00:02:48.49 bitrate= 986.4kbits/s speed=0.999x    frame= 4225 fps= 25 q=28.0 size=   20352kB time=00:02:49.00 bitrate= 986.5kbits/s speed=0.999x    frame= 4237 fps= 25 q=28.0 size=   20412kB time=00:02:49.53 bitrate= 986.3kbits/s speed=   1x    frame= 4250 fps= 25 q=28.0 size=   20495kB time=00:02:50.07 bitrate= 987.2kbits/s speed=   1x    frame= 4263 fps= 25 q=28.0 size=   20574kB time=00:02:50.53 bitrate= 988.3kbits/s speed=0.999x    frame= 4275 fps= 25 q=25.0 size=   20634kB time=00:02:51.05 bitrate= 988.2kbits/s speed=0.999x    frame= 4288 fps= 25 q=28.0 size=   20720kB time=00:02:51.54 bitrate= 989.5kbits/s speed=0.999x    frame= 4300 fps= 25 q=28.0 size=   20776kB time=00:02:52.05 bitrate= 989.2kbits/s speed=0.999x    frame= 4313 fps= 25 q=28.0 size=   20858kB time=00:02:52.52 bitrate= 990.4kbits/s speed=0.999x    frame= 4326 fps= 25 q=28.0 size=   20917kB time=00:02:53.07 bitrate= 990.0kbits/s speed=0.999x    frame= 4338 fps= 25 q=28.0 size=   20975kB time=00:02:53.59 bitrate= 989.8kbits/s speed=   1x    frame= 4351 fps= 25 q=28.0 size=   21045kB time=00:02:54.10 bitrate= 990.2kbits/s speed=   1x    frame= 4364 fps= 25 q=28.0 size=   21093kB time=00:02:54.57 bitrate= 989.8kbits/s speed=0.999x    frame= 4376 fps= 25 q=28.0 size=   21169kB time=00:02:55.08 bitrate= 990.5kbits/s speed=0.999x    frame= 4389 fps= 25 q=28.0 size=   21264kB time=00:02:55.57 bitrate= 992.1kbits/s speed=0.999x    frame= 4402 fps= 25 q=28.0 size=   21361kB time=00:02:56.02 bitrate= 994.1kbits/s speed=0.999x    frame= 4414 fps= 25 q=28.0 size=   21451kB time=00:02:56.53 bitrate= 995.4kbits/s speed=0.999x    frame= 4427 fps= 25 q=28.0 size=   21539kB time=00:02:57.06 bitrate= 996.5kbits/s speed=0.999x    frame= 4439 fps= 25 q=28.0 size=   21632kB time=00:02:57.62 bitrate= 997.7kbits/s speed=   1x    frame= 4452 fps= 25 q=28.0 size=   21719kB time=00:02:58.13 bitrate= 998.8kbits/s speed=   1x    frame= 4464 fps= 25 q=28.0 size=   21836kB time=00:02:58.60 bitrate=1001.6kbits/s speed=0.999x    frame= 4477 fps= 25 q=28.0 size=   21929kB time=00:02:59.09 bitrate=1003.1kbits/s speed=0.999x    frame= 4490 fps= 25 q=28.0 size=   22021kB time=00:02:59.62 bitrate=1004.3kbits/s speed=0.999x    frame= 4503 fps= 25 q=28.0 size=   22118kB time=00:03:00.13 bitrate=1005.9kbits/s speed=0.999x    frame= 4515 fps= 25 q=28.0 size=   22187kB time=00:03:00.63 bitrate=1006.2kbits/s speed=0.999x    frame= 4527 fps= 25 q=28.0 size=   22278kB time=00:03:01.14 bitrate=1007.5kbits/s speed=0.999x    frame= 4540 fps= 25 q=28.0 size=   22358kB time=00:03:01.63 bitrate=1008.4kbits/s speed=0.999x    frame= 4553 fps= 25 q=28.0 size=   22428kB time=00:03:02.16 bitrate=1008.6kbits/s speed=   1x    frame= 4565 fps= 25 q=28.0 size=   22511kB time=00:03:02.61 bitrate=1009.8kbits/s speed=0.999x    frame= 4578 fps= 25 q=28.0 size=   22580kB time=00:03:03.16 bitrate=1009.9kbits/s speed=   1x    frame= 4590 fps= 25 q=28.0 size=   22662kB time=00:03:03.65 bitrate=1010.8kbits/s speed=   1x    frame= 4603 fps= 25 q=28.0 size=   22725kB time=00:03:04.17 bitrate=1010.8kbits/s speed=   1x    frame= 4616 fps= 25 q=28.0 size=   22818kB time=00:03:04.66 bitrate=1012.2kbits/s speed=0.999x    frame= 4628 fps= 25 q=28.0 size=   22891kB time=00:03:05.13 bitrate=1012.9kbits/s speed=0.999x    frame= 4641 fps= 25 q=28.0 size=   22966kB time=00:03:05.66 bitrate=1013.3kbits/s speed=0.999x    frame= 4653 fps= 25 q=28.0 size=   23067kB time=00:03:06.13 bitrate=1015.2kbits/s speed=0.999x    frame= 4666 fps= 25 q=28.0 size=   23143kB time=00:03:06.64 bitrate=1015.7kbits/s speed=0.999x    frame= 4679 fps= 25 q=28.0 size=   23225kB time=00:03:07.20 bitrate=1016.4kbits/s speed=   1x    frame= 4691 fps= 25 q=28.0 size=   23287kB time=00:03:07.67 bitrate=1016.5kbits/s speed=0.999x    frame= 4704 fps= 25 q=28.0 size=   23364kB time=00:03:08.22 bitrate=1016.9kbits/s speed=   1x    frame= 4716 fps= 25 q=28.0 size=   23451kB time=00:03:08.71 bitrate=1018.0kbits/s speed=   1x    frame= 4729 fps= 25 q=28.0 size=   23498kB time=00:03:09.18 bitrate=1017.5kbits/s speed=0.999x    frame= 4742 fps= 25 q=28.0 size=   23557kB time=00:03:09.73 bitrate=1017.1kbits/s speed=   1x    frame= 4755 fps= 25 q=28.0 size=   23622kB time=00:03:10.25 bitrate=1017.1kbits/s speed=   1x    frame= 4767 fps= 25 q=28.0 size=   23675kB time=00:03:10.72 bitrate=1016.9kbits/s speed=   1x    frame= 4779 fps= 25 q=28.0 size=   23730kB time=00:03:11.25 bitrate=1016.4kbits/s speed=   1x    frame= 4792 fps= 25 q=28.0 size=   23803kB time=00:03:11.70 bitrate=1017.2kbits/s speed=0.999x    frame= 4805 fps= 25 q=28.0 size=   23838kB time=00:03:12.23 bitrate=1015.8kbits/s speed=   1x    frame= 4818 fps= 25 q=28.0 size=   23848kB time=00:03:12.68 bitrate=1013.9kbits/s speed=0.999x    frame= 4830 fps= 25 q=28.0 size=   23857kB time=00:03:13.19 bitrate=1011.6kbits/s speed=0.999x    frame= 4843 fps= 25 q=28.0 size=   23878kB time=00:03:13.72 bitrate=1009.7kbits/s speed=0.999x    frame= 4855 fps= 25 q=28.0 size=   23887kB time=00:03:14.28 bitrate=1007.2kbits/s speed=   1x    frame= 4868 fps= 25 q=28.0 size=   23941kB time=00:03:14.73 bitrate=1007.2kbits/s speed=0.999x    frame= 4880 fps= 25 q=28.0 size=   23998kB time=00:03:15.26 bitrate=1006.8kbits/s speed=   1x    frame= 4893 fps= 25 q=28.0 size=   24082kB time=00:03:15.73 bitrate=1007.9kbits/s speed=0.999x    frame= 4905 fps= 25 q=28.0 size=   24141kB time=00:03:16.24 bitrate=1007.7kbits/s speed=0.999x    frame= 4918 fps= 25 q=25.0 size=   24210kB time=00:03:16.75 bitrate=1008.0kbits/s speed=   1x    frame= 4930 fps= 25 q=28.0 size=   24295kB time=00:03:17.29 bitrate=1008.8kbits/s speed=   1x    frame= 4943 fps= 25 q=28.0 size=   24366kB time=00:03:17.76 bitrate=1009.3kbits/s speed=0.999x    frame= 4956 fps= 25 q=28.0 size=   24460kB time=00:03:18.29 bitrate=1010.5kbits/s speed=   1x    frame= 4968 fps= 25 q=28.0 size=   24523kB time=00:03:18.76 bitrate=1010.7kbits/s speed=0.999x    frame= 4981 fps= 25 q=28.0 size=   24579kB time=00:03:19.25 bitrate=1010.5kbits/s speed=0.999x    frame= 4994 fps= 25 q=28.0 size=   24649kB time=00:03:19.78 bitrate=1010.7kbits/s speed=   1x    frame= 5007 fps= 25 q=28.0 size=   24693kB time=00:03:20.29 bitrate=1009.9kbits/s speed=   1x    frame= 5019 fps= 25 q=28.0 size=   24764kB time=00:03:20.79 bitrate=1010.3kbits/s speed=0.999x    frame= 5032 fps= 25 q=28.0 size=   24803kB time=00:03:21.30 bitrate=1009.4kbits/s speed=0.999x    frame= 5044 fps= 25 q=28.0 size=   24874kB time=00:03:21.81 bitrate=1009.7kbits/s speed=   1x    frame= 5057 fps= 25 q=25.0 size=   24906kB time=00:03:22.32 bitrate=1008.4kbits/s speed=   1x    frame= 5070 fps= 25 q=28.0 size=   24961kB time=00:03:22.85 bitrate=1008.0kbits/s speed=   1x    frame= 5082 fps= 25 q=28.0 size=   25001kB time=00:03:23.35 bitrate=1007.2kbits/s speed=   1x    frame= 5095 fps= 25 q=28.0 size=   25063kB time=00:03:23.81 bitrate=1007.3kbits/s speed=0.999x    frame= 5108 fps= 25 q=28.0 size=   25109kB time=00:03:24.33 bitrate=1006.7kbits/s speed=0.999x    frame= 5120 fps= 25 q=28.0 size=   25150kB time=00:03:24.84 bitrate=1005.8kbits/s speed=0.999x    frame= 5133 fps= 25 q=28.0 size=   25209kB time=00:03:25.33 bitrate=1005.7kbits/s speed=0.999x    frame= 5146 fps= 25 q=28.0 size=   25254kB time=00:03:25.86 bitrate=1004.9kbits/s speed=   1x    frame= 5158 fps= 25 q=28.0 size=   25309kB time=00:03:26.35 bitrate=1004.7kbits/s speed=0.999x    frame= 5171 fps= 25 q=28.0 size=   25351kB time=00:03:26.89 bitrate=1003.8kbits/s speed=   1x    frame= 5184 fps= 25 q=28.0 size=   25417kB time=00:03:27.40 bitrate=1003.9kbits/s speed=   1x    frame= 5196 fps= 25 q=28.0 size=   25453kB time=00:03:27.85 bitrate=1003.2kbits/s speed=0.999x    frame= 5209 fps= 25 q=28.0 size=   25492kB time=00:03:28.36 bitrate=1002.3kbits/s speed=0.999x    frame= 5221 fps= 25 q=28.0 size=   25546kB time=00:03:28.87 bitrate=1001.9kbits/s speed=0.999x    frame= 5234 fps= 25 q=28.0 size=   25611kB time=00:03:29.43 bitrate=1001.8kbits/s speed=   1x    frame= 5247 fps= 25 q=28.0 size=   25653kB time=00:03:29.89 bitrate=1001.2kbits/s speed=   1x    frame= 5260 fps= 25 q=28.0 size=   25699kB time=00:03:30.39 bitrate=1000.7kbits/s speed=0.999x    frame= 5272 fps= 25 q=28.0 size=   25795kB time=00:03:30.92 bitrate=1001.8kbits/s speed=   1x    frame= 5285 fps= 25 q=28.0 size=   25879kB time=00:03:31.43 bitrate=1002.7kbits/s speed=   1x    frame= 5297 fps= 25 q=28.0 size=   25955kB time=00:03:31.88 bitrate=1003.5kbits/s speed=0.999x    frame= 5310 fps= 25 q=28.0 size=   26021kB time=00:03:32.39 bitrate=1003.6kbits/s speed=0.999x    frame= 5322 fps= 25 q=28.0 size=   26079kB time=00:03:32.88 bitrate=1003.5kbits/s speed=0.999x    frame= 5335 fps= 25 q=28.0 size=   26157kB time=00:03:33.39 bitrate=1004.1kbits/s speed=0.999x    frame= 5348 fps= 25 q=28.0 size=   26225kB time=00:03:33.88 bitrate=1004.4kbits/s speed=0.999x    frame= 5361 fps= 25 q=28.0 size=   26273kB time=00:03:34.42 bitrate=1003.8kbits/s speed=0.999x    frame= 5373 fps= 25 q=28.0 size=   26324kB time=00:03:34.95 bitrate=1003.2kbits/s speed=   1x    frame= 5386 fps= 25 q=28.0 size=   26397kB time=00:03:35.46 bitrate=1003.6kbits/s speed=   1x    frame= 5398 fps= 25 q=28.0 size=   26478kB time=00:03:35.91 bitrate=1004.6kbits/s speed=0.999x    frame= 5411 fps= 25 q=28.0 size=   26578kB time=00:03:36.42 bitrate=1006.0kbits/s speed=0.999x    frame= 5424 fps= 25 q=28.0 size=   26706kB time=00:03:36.98 bitrate=1008.3kbits/s speed=   1x    frame= 5436 fps= 25 q=28.0 size=   26797kB time=00:03:37.49 bitrate=1009.3kbits/s speed=   1x    frame= 5449 fps= 25 q=28.0 size=   26926kB time=00:03:37.96 bitrate=1012.0kbits/s speed=0.999x    frame= 5461 fps= 25 q=28.0 size=   27022kB time=00:03:38.45 bitrate=1013.3kbits/s speed=0.999x    frame= 5474 fps= 25 q=28.0 size=   27155kB time=00:03:38.98 bitrate=1015.8kbits/s speed=   1x    frame= 5487 fps= 25 q=28.0 size=   27274kB time=00:03:39.49 bitrate=1017.9kbits/s speed=   1x    frame= 5499 fps= 25 q=28.0 size=   27368kB time=00:03:39.99 bitrate=1019.1kbits/s speed=   1x    frame= 5512 fps= 25 q=28.0 size=   27497kB time=00:03:40.50 bitrate=1021.6kbits/s speed=   1x    frame= 5524 fps= 25 q=28.0 size=   27576kB time=00:03:40.97 bitrate=1022.3kbits/s speed=0.999x    frame= 5537 fps= 25 q=28.0 size=   27700kB time=00:03:41.52 bitrate=1024.3kbits/s speed=   1x    frame= 5549 fps= 25 q=28.0 size=   27773kB time=00:03:41.99 bitrate=1024.9kbits/s speed=0.999x    frame= 5562 fps= 25 q=28.0 size=   27884kB time=00:03:42.52 bitrate=1026.5kbits/s speed=   1x    frame= 5575 fps= 25 q=28.0 size=   28022kB time=00:03:43.01 bitrate=1029.3kbits/s speed=   1x    frame= 5588 fps= 25 q=28.0 size=   28160kB time=00:03:43.53 bitrate=1032.0kbits/s speed=   1x    frame= 5600 fps= 25 q=28.0 size=   28312kB time=00:03:44.02 bitrate=1035.3kbits/s speed=0.999x    frame= 5613 fps= 25 q=28.0 size=   28447kB time=00:03:44.53 bitrate=1037.9kbits/s speed=0.999x    frame= 5626 fps= 25 q=28.0 size=   28598kB time=00:03:45.06 bitrate=1040.9kbits/s speed=   1x    frame= 5638 fps= 25 q=28.0 size=   28789kB time=00:03:45.57 bitrate=1045.5kbits/s speed=   1x    frame= 5651 fps= 25 q=28.0 size=   28932kB time=00:03:46.09 bitrate=1048.3kbits/s speed=   1x    frame= 5664 fps= 25 q=28.0 size=   29100kB time=00:03:46.58 bitrate=1052.1kbits/s speed=   1x    frame= 5676 fps= 25 q=28.0 size=   29222kB time=00:03:47.09 bitrate=1054.1kbits/s speed=   1x    frame= 5689 fps= 25 q=28.0 size=   29372kB time=00:03:47.56 bitrate=1057.4kbits/s speed=0.999x    frame= 5702 fps= 25 q=28.0 size=   29454kB time=00:03:48.05 bitrate=1058.0kbits/s speed=0.999x    frame= 5714 fps= 25 q=28.0 size=   29517kB time=00:03:48.56 bitrate=1057.9kbits/s speed=0.999x    frame= 5727 fps= 25 q=28.0 size=   29615kB time=00:03:49.07 bitrate=1059.0kbits/s speed=0.999x    frame= 5740 fps= 25 q=28.0 size=   29680kB time=00:03:49.59 bitrate=1059.0kbits/s speed=0.999x    frame= 5752 fps= 25 q=28.0 size=   29745kB time=00:03:50.05 bitrate=1059.2kbits/s speed=0.999x    frame= 5765 fps= 25 q=28.0 size=   29836kB time=00:03:50.61 bitrate=1059.9kbits/s speed=   1x    frame= 5777 fps= 25 q=25.0 size=   29890kB time=00:03:51.12 bitrate=1059.4kbits/s speed=   1x    frame= 5790 fps= 25 q=28.0 size=   30011kB time=00:03:51.63 bitrate=1061.3kbits/s speed=   1x    frame= 5803 fps= 25 q=28.0 size=   30157kB time=00:03:52.15 bitrate=1064.2kbits/s speed=   1x    frame= 5815 fps= 25 q=28.0 size=   30297kB time=00:03:52.66 bitrate=1066.7kbits/s speed=   1x    frame= 5828 fps= 25 q=28.0 size=   30343kB time=00:03:53.13 bitrate=1066.2kbits/s speed=0.999x    frame= 5841 fps= 25 q=28.0 size=   30420kB time=00:03:53.66 bitrate=1066.5kbits/s speed=   1x    frame= 5853 fps= 25 q=28.0 size=   30455kB time=00:03:54.15 bitrate=1065.5kbits/s speed=   1x    frame= 5866 fps= 25 q=28.0 size=   30537kB time=00:03:54.71 bitrate=1065.8kbits/s speed=   1x    frame= 5878 fps= 25 q=28.0 size=   30569kB time=00:03:55.20 bitrate=1064.7kbits/s speed=   1x    frame= 5891 fps= 25 q=25.0 size=   30608kB time=00:03:55.67 bitrate=1063.9kbits/s speed=   1x    frame= 5904 fps= 25 q=28.0 size=   30672kB time=00:03:56.18 bitrate=1063.9kbits/s speed=   1x    frame= 5916 fps= 25 q=28.0 size=   30748kB time=00:03:56.69 bitrate=1064.2kbits/s speed=   1x    frame= 5929 fps= 25 q=28.0 size=   30783kB time=00:03:57.16 bitrate=1063.3kbits/s speed=0.999x    frame= 5941 fps= 25 q=28.0 size=   30854kB time=00:03:57.69 bitrate=1063.4kbits/s speed=   1x    frame= 5954 fps= 25 q=28.0 size=   30901kB time=00:03:58.18 bitrate=1062.8kbits/s speed=   1x    frame= 5967 fps= 25 q=28.0 size=   30961kB time=00:03:58.74 bitrate=1062.4kbits/s speed=   1x    frame= 5979 fps= 25 q=28.0 size=   30993kB time=00:03:59.23 bitrate=1061.3kbits/s speed=   1x    frame= 5992 fps= 25 q=28.0 size=   31104kB time=00:03:59.70 bitrate=1063.0kbits/s speed=   1x    frame= 6005 fps= 25 q=25.0 size=   31197kB time=00:04:00.21 bitrate=1063.9kbits/s speed=   1x    frame= 6017 fps= 25 q=28.0 size=   31308kB time=00:04:00.72 bitrate=1065.4kbits/s speed=   1x    frame= 6030 fps= 25 q=28.0 size=   31404kB time=00:04:01.25 bitrate=1066.4kbits/s speed=   1x    frame= 6043 fps= 25 q=28.0 size=   31526kB time=00:04:01.75 bitrate=1068.3kbits/s speed=   1x    frame= 6055 fps= 25 q=28.0 size=   31610kB time=00:04:02.28 bitrate=1068.8kbits/s speed=   1x    frame= 6068 fps= 25 q=28.0 size=   31702kB time=00:04:02.79 bitrate=1069.6kbits/s speed=   1x    frame= 6080 fps= 25 q=28.0 size=   31810kB time=00:04:03.28 bitrate=1071.1kbits/s speed=   1x    frame= 6093 fps= 25 q=28.0 size=   31898kB time=00:04:03.73 bitrate=1072.1kbits/s speed=0.999x    frame= 6106 fps= 25 q=28.0 size=   31994kB time=00:04:04.26 bitrate=1073.0kbits/s speed=   1x    frame= 6118 fps= 25 q=28.0 size=   32055kB time=00:04:04.75 bitrate=1072.9kbits/s speed=   1x    frame= 6131 fps= 25 q=28.0 size=   32148kB time=00:04:05.22 bitrate=1073.9kbits/s speed=0.999x    frame= 6144 fps= 25 q=28.0 size=   32198kB time=00:04:05.80 bitrate=1073.1kbits/s speed=   1x    frame= 6156 fps= 25 q=28.0 size=   32239kB time=00:04:06.31 bitrate=1072.2kbits/s speed=   1x    frame= 6169 fps= 25 q=28.0 size=   32307kB time=00:04:06.80 bitrate=1072.3kbits/s speed=   1x    frame= 6182 fps= 25 q=28.0 size=   32339kB time=00:04:07.29 bitrate=1071.3kbits/s speed=   1x    frame= 6194 fps= 25 q=28.0 size=   32376kB time=00:04:07.78 bitrate=1070.4kbits/s speed=   1x    frame= 6207 fps= 25 q=25.0 size=   32437kB time=00:04:08.29 bitrate=1070.2kbits/s speed=   1x    frame= 6219 fps= 25 q=28.0 size=   32518kB time=00:04:08.79 bitrate=1070.7kbits/s speed=   1x    frame= 6232 fps= 25 q=28.0 size=   32583kB time=00:04:09.30 bitrate=1070.7kbits/s speed=   1x    frame= 6245 fps= 25 q=28.0 size=   32663kB time=00:04:09.79 bitrate=1071.2kbits/s speed=0.999x    frame= 6258 fps= 25 q=28.0 size=   32699kB time=00:04:10.28 bitrate=1070.3kbits/s speed=0.999x    frame= 6270 fps= 25 q=28.0 size=   32754kB time=00:04:10.83 bitrate=1069.7kbits/s speed=   1x    frame= 6282 fps= 25 q=28.0 size=   32786kB time=00:04:11.35 bitrate=1068.6kbits/s speed=   1x    frame= 6295 fps= 25 q=28.0 size=   32899kB time=00:04:11.81 bitrate=1070.2kbits/s speed=   1x    frame= 6308 fps= 25 q=28.0 size=   33003kB time=00:04:12.35 bitrate=1071.4kbits/s speed=   1x    frame= 6321 fps= 25 q=28.0 size=   33113kB time=00:04:12.86 bitrate=1072.8kbits/s speed=   1x    frame= 6333 fps= 25 q=28.0 size=   33176kB time=00:04:13.33 bitrate=1072.8kbits/s speed=0.999x    frame= 6346 fps= 25 q=28.0 size=   33263kB time=00:04:13.86 bitrate=1073.3kbits/s speed=   1x    frame= 6359 fps= 25 q=28.0 size=   33327kB time=00:04:14.35 bitrate=1073.3kbits/s speed=   1x    frame= 6371 fps= 25 q=28.0 size=   33456kB time=00:04:14.87 bitrate=1075.3kbits/s speed=   1x    frame= 6383 fps= 25 q=28.0 size=   33521kB time=00:04:15.40 bitrate=1075.2kbits/s speed=   1x    frame= 6396 fps= 25 q=28.0 size=   33620kB time=00:04:15.85 bitrate=1076.5kbits/s speed=0.999x    frame= 6409 fps= 25 q=28.0 size=   33713kB time=00:04:16.36 bitrate=1077.3kbits/s speed=   1x    frame= 6421 fps= 25 q=28.0 size=   33768kB time=00:04:16.91 bitrate=1076.7kbits/s speed=   1x    frame= 6434 fps= 25 q=28.0 size=   33840kB time=00:04:17.43 bitrate=1076.8kbits/s speed=   1x    frame= 6446 fps= 25 q=28.0 size=   33892kB time=00:04:17.89 bitrate=1076.6kbits/s speed=   1x    frame= 6459 fps= 25 q=28.0 size=   33974kB time=00:04:18.39 bitrate=1077.1kbits/s speed=   1x    frame= 6472 fps= 25 q=28.0 size=   34067kB time=00:04:18.90 bitrate=1077.9kbits/s speed=   1x    frame= 6484 fps= 25 q=28.0 size=   34120kB time=00:04:19.41 bitrate=1077.5kbits/s speed=   1x    frame= 6497 fps= 25 q=28.0 size=   34169kB time=00:04:19.88 bitrate=1077.1kbits/s speed=0.999x    frame= 6510 fps= 25 q=28.0 size=   34225kB time=00:04:20.43 bitrate=1076.5kbits/s speed=   1x    frame= 6522 fps= 25 q=28.0 size=   34262kB time=00:04:20.95 bitrate=1075.6kbits/s speed=   1x    frame= 6535 fps= 25 q=28.0 size=   34327kB time=00:04:21.46 bitrate=1075.5kbits/s speed=   1x    frame= 6547 fps= 25 q=28.0 size=   34406kB time=00:04:21.93 bitrate=1076.1kbits/s speed=   1x    frame= 6560 fps= 25 q=28.0 size=   34498kB time=00:04:22.42 bitrate=1076.9kbits/s speed=   1x    frame= 6573 fps= 25 q=28.0 size=   34576kB time=00:04:22.93 bitrate=1077.2kbits/s speed=   1x    frame= 6586 fps= 25 q=28.0 size=   34659kB time=00:04:23.46 bitrate=1077.7kbits/s speed=   1x    frame= 6598 fps= 25 q=28.0 size=   34728kB time=00:04:23.91 bitrate=1078.0kbits/s speed=0.999x    frame= 6611 fps= 25 q=28.0 size=   34833kB time=00:04:24.42 bitrate=1079.1kbits/s speed=0.999x    frame= 6623 fps= 25 q=28.0 size=   34915kB time=00:04:24.98 bitrate=1079.4kbits/s speed=   1x    frame= 6636 fps= 25 q=28.0 size=   35003kB time=00:04:25.49 bitrate=1080.1kbits/s speed=   1x    frame= 6648 fps= 25 q=28.0 size=   35042kB time=00:04:25.98 bitrate=1079.3kbits/s speed=   1x    frame= 6661 fps= 25 q=28.0 size=   35118kB time=00:04:26.45 bitrate=1079.7kbits/s speed=   1x    frame= 6674 fps= 25 q=28.0 size=   35168kB time=00:04:26.96 bitrate=1079.1kbits/s speed=   1x    frame= 6686 fps= 25 q=28.0 size=   35205kB time=00:04:27.47 bitrate=1078.2kbits/s speed=   1x    frame= 6699 fps= 25 q=28.0 size=   35273kB time=00:04:27.99 bitrate=1078.2kbits/s speed=   1x    frame= 6711 fps= 25 q=28.0 size=   35353kB time=00:04:28.48 bitrate=1078.7kbits/s speed=   1x    frame= 6724 fps= 25 q=28.0 size=   35426kB time=00:04:28.99 bitrate=1078.9kbits/s speed=   1x    frame= 6737 fps= 25 q=28.0 size=   35520kB time=00:04:29.52 bitrate=1079.6kbits/s speed=   1x    frame= 6749 fps= 25 q=28.0 size=   35596kB time=00:04:29.99 bitrate=1080.0kbits/s speed=   1x    frame= 6762 fps= 25 q=28.0 size=   35663kB time=00:04:30.52 bitrate=1079.9kbits/s speed=   1x    frame= 6775 fps= 25 q=28.0 size=   35732kB time=00:04:31.06 bitrate=1079.9kbits/s speed=   1x    frame= 6787 fps= 25 q=25.0 size=   35813kB time=00:04:31.53 bitrate=1080.5kbits/s speed=   1x    frame= 6800 fps= 25 q=28.0 size=   35901kB time=00:04:32.02 bitrate=1081.2kbits/s speed=   1x    frame= 6812 fps= 25 q=28.0 size=   35972kB time=00:04:32.51 bitrate=1081.4kbits/s speed=   1x    frame= 6825 fps= 25 q=28.0 size=   36063kB time=00:04:33.02 bitrate=1082.1kbits/s speed=   1x    frame= 6838 fps= 25 q=28.0 size=   36144kB time=00:04:33.49 bitrate=1082.6kbits/s speed=0.999x    frame= 6851 fps= 25 q=28.0 size=   36226kB time=00:04:34.09 bitrate=1082.7kbits/s speed=   1x    frame= 6863 fps= 25 q=28.0 size=   36319kB time=00:04:34.56 bitrate=1083.6kbits/s speed=   1x    frame= 6876 fps= 25 q=28.0 size=   36392kB time=00:04:35.05 bitrate=1083.9kbits/s speed=   1x    frame= 6889 fps= 25 q=28.0 size=   36495kB time=00:04:35.56 bitrate=1084.9kbits/s speed=   1x    frame= 6901 fps= 25 q=28.0 size=   36568kB time=00:04:36.05 bitrate=1085.2kbits/s speed=   1x    frame= 6913 fps= 25 q=28.0 size=   36627kB time=00:04:36.54 bitrate=1085.0kbits/s speed=   1x    frame= 6926 fps= 25 q=28.0 size=   36660kB time=00:04:37.07 bitrate=1083.9kbits/s speed=   1x    frame= 6939 fps= 25 q=28.0 size=   36696kB time=00:04:37.59 bitrate=1083.0kbits/s speed=   1x    frame= 6951 fps= 25 q=28.0 size=   36741kB time=00:04:38.05 bitrate=1082.4kbits/s speed=   1x    frame= 6964 fps= 25 q=28.0 size=   36776kB time=00:04:38.61 bitrate=1081.3kbits/s speed=   1x    frame= 6976 fps= 25 q=28.0 size=   36826kB time=00:04:39.12 bitrate=1080.8kbits/s speed=   1x    frame= 6989 fps= 25 q=28.0 size=   36868kB time=00:04:39.59 bitrate=1080.2kbits/s speed=   1x    frame= 7002 fps= 25 q=28.0 size=   36931kB time=00:04:40.08 bitrate=1080.2kbits/s speed=   1x    frame= 7015 fps= 25 q=28.0 size=   36968kB time=00:04:40.61 bitrate=1079.2kbits/s speed=   1x    frame= 7027 fps= 25 q=28.0 size=   37011kB time=00:04:41.13 bitrate=1078.5kbits/s speed=   1x    frame= 7040 fps= 25 q=28.0 size=   37074kB time=00:04:41.64 bitrate=1078.4kbits/s speed=   1x    frame= 7052 fps= 25 q=28.0 size=   37111kB time=00:04:42.11 bitrate=1077.6kbits/s speed=   1x    frame= 7065 fps= 25 q=28.0 size=   37170kB time=00:04:42.62 bitrate=1077.4kbits/s speed=   1x    frame= 7078 fps= 25 q=28.0 size=   37212kB time=00:04:43.15 bitrate=1076.6kbits/s speed=   1x    frame= 7090 fps= 25 q=28.0 size=   37253kB time=00:04:43.64 bitrate=1075.9kbits/s speed=   1x    frame= 7102 fps= 25 q=28.0 size=   37312kB time=00:04:44.20 bitrate=1075.5kbits/s speed=   1x    frame= 7115 fps= 25 q=28.0 size=   37352kB time=00:04:44.63 bitrate=1075.0kbits/s speed=   1x    frame= 7128 fps= 25 q=28.0 size=   37417kB time=00:04:45.14 bitrate=1075.0kbits/s speed=   1x    frame= 7141 fps= 25 q=28.0 size=   37462kB time=00:04:45.65 bitrate=1074.3kbits/s speed=   1x    frame= 7153 fps= 25 q=28.0 size=   37525kB time=00:04:46.12 bitrate=1074.4kbits/s speed=   1x    frame= 7165 fps= 25 q=28.0 size=   37575kB time=00:04:46.67 bitrate=1073.7kbits/s speed=   1x    frame= 7178 fps= 25 q=28.0 size=   37624kB time=00:04:47.19 bitrate=1073.2kbits/s speed=   1x    frame= 7191 fps= 25 q=28.0 size=   37698kB time=00:04:47.65 bitrate=1073.6kbits/s speed=   1x    frame= 7204 fps= 25 q=28.0 size=   37752kB time=00:04:48.23 bitrate=1073.0kbits/s speed=   1x    frame= 7216 fps= 25 q=28.0 size=   37824kB time=00:04:48.68 bitrate=1073.4kbits/s speed=   1x    frame= 7229 fps= 25 q=28.0 size=   37878kB time=00:04:49.17 bitrate=1073.0kbits/s speed=   1x    frame= 7241 fps= 25 q=28.0 size=   37963kB time=00:04:49.70 bitrate=1073.5kbits/s speed=   1x    frame= 7254 fps= 25 q=28.0 size=   38017kB time=00:04:50.26 bitrate=1072.9kbits/s speed=   1x    frame= 7267 fps= 25 q=28.0 size=   38071kB time=00:04:50.75 bitrate=1072.6kbits/s speed=   1x    frame= 7280 fps= 25 q=28.0 size=   38147kB time=00:04:51.22 bitrate=1073.1kbits/s speed=   1x    frame= 7292 fps= 25 q=28.0 size=   38199kB time=00:04:51.69 bitrate=1072.8kbits/s speed=   1x    frame= 7305 fps= 25 q=28.0 size=   38285kB time=00:04:52.26 bitrate=1073.1kbits/s speed=   1x    frame= 7317 fps= 25 q=28.0 size=   38320kB time=00:04:52.71 bitrate=1072.4kbits/s speed=   1x    frame= 7330 fps= 25 q=28.0 size=   38360kB time=00:04:53.24 bitrate=1071.6kbits/s speed=   1x    frame= 7343 fps= 25 q=28.0 size=   38444kB time=00:04:53.78 bitrate=1072.0kbits/s speed=   1x    frame= 7356 fps= 25 q=25.0 size=   38492kB time=00:04:54.29 bitrate=1071.5kbits/s speed=   1x    frame= 7368 fps= 25 q=28.0 size=   38552kB time=00:04:54.76 bitrate=1071.4kbits/s speed=   1x    frame= 7381 fps= 25 q=28.0 size=   38618kB time=00:04:55.25 bitrate=1071.5kbits/s speed=   1x    frame= 7393 fps= 25 q=28.0 size=   38666kB time=00:04:55.74 bitrate=1071.0kbits/s speed=   1x    frame= 7406 fps= 25 q=28.0 size=   38720kB time=00:04:56.27 bitrate=1070.6kbits/s speed=   1x    frame= 7418 fps= 25 q=28.0 size=   38758kB time=00:04:56.74 bitrate=1070.0kbits/s speed=   1x    frame= 7431 fps= 25 q=28.0 size=   38809kB time=00:04:57.23 bitrate=1069.6kbits/s speed=   1x    frame= 7443 fps= 25 q=28.0 size=   38837kB time=00:04:57.77 bitrate=1068.5kbits/s speed=   1x    frame= 7456 fps= 25 q=28.0 size=   38870kB time=00:04:58.28 bitrate=1067.5kbits/s speed=   1x    frame= 7469 fps= 25 q=28.0 size=   38917kB time=00:04:58.81 bitrate=1066.9kbits/s speed=   1x    frame= 7481 fps= 25 q=28.0 size=   38945kB time=00:04:59.28 bitrate=1066.0kbits/s speed=   1x    frame= 7494 fps= 25 q=28.0 size=   38989kB time=00:04:59.79 bitrate=1065.4kbits/s speed=   1x    frame= 7507 fps= 25 q=28.0 size=   39028kB time=00:05:00.33 bitrate=1064.6kbits/s speed=   1x    frame= 7519 fps= 25 q=28.0 size=   39050kB time=00:05:00.84 bitrate=1063.4kbits/s speed=   1x    frame= 7532 fps= 25 q=28.0 size=   39076kB time=00:05:01.31 bitrate=1062.4kbits/s speed=   1x    frame= 7544 fps= 25 q=28.0 size=   39113kB time=00:05:01.80 bitrate=1061.7kbits/s speed=   1x    frame= 7557 fps= 25 q=28.0 size=   39139kB time=00:05:02.31 bitrate=1060.6kbits/s speed=   1x    frame= 7569 fps= 25 q=28.0 size=   39172kB time=00:05:02.80 bitrate=1059.7kbits/s speed=   1x    frame= 7582 fps= 25 q=28.0 size=   39233kB time=00:05:03.31 bitrate=1059.6kbits/s speed=   1x    frame= 7595 fps= 25 q=28.0 size=   39293kB time=00:05:03.83 bitrate=1059.4kbits/s speed=   1x    frame= 7608 fps= 25 q=28.0 size=   39355kB time=00:05:04.34 bitrate=1059.3kbits/s speed=   1x    frame= 7620 fps= 25 q=28.0 size=   39442kB time=00:05:04.85 bitrate=1059.9kbits/s speed=   1x    frame= 7633 fps= 25 q=28.0 size=   39506kB time=00:05:05.32 bitrate=1060.0kbits/s speed=   1x    frame= 7645 fps= 25 q=28.0 size=   39599kB time=00:05:05.83 bitrate=1060.7kbits/s speed=   1x    frame= 7658 fps= 25 q=28.0 size=   39658kB time=00:05:06.34 bitrate=1060.5kbits/s speed=   1x    frame= 7671 fps= 25 q=28.0 size=   39762kB time=00:05:06.85 bitrate=1061.5kbits/s speed=   1x    frame= 7683 fps= 25 q=28.0 size=   39816kB time=00:05:07.37 bitrate=1061.2kbits/s speed=   1x    frame= 7696 fps= 25 q=25.0 size=   39888kB time=00:05:07.86 bitrate=1061.4kbits/s speed=   1x    frame= 7709 fps= 25 q=28.0 size=   39985kB time=00:05:08.37 bitrate=1062.2kbits/s speed=   1x    frame= 7721 fps= 25 q=28.0 size=   40039kB time=00:05:08.90 bitrate=1061.8kbits/s speed=   1x    frame= 7734 fps= 25 q=28.0 size=   40139kB time=00:05:09.41 bitrate=1062.7kbits/s speed=   1x    frame= 7747 fps= 25 q=28.0 size=   40207kB time=00:05:09.91 bitrate=1062.8kbits/s speed=   1x    frame= 7759 fps= 25 q=28.0 size=   40285kB time=00:05:10.42 bitrate=1063.1kbits/s speed=   1x    frame= 7772 fps= 25 q=28.0 size=   40383kB time=00:05:10.89 bitrate=1064.1kbits/s speed=   1x    frame= 7785 fps= 25 q=28.0 size=   40454kB time=00:05:11.44 bitrate=1064.1kbits/s speed=   1x    frame= 7797 fps= 25 q=28.0 size=   40547kB time=00:05:11.91 bitrate=1064.9kbits/s speed=   1x    frame= 7810 fps= 25 q=28.0 size=   40605kB time=00:05:12.42 bitrate=1064.7kbits/s speed=   1x    frame= 7823 fps= 25 q=28.0 size=   40702kB time=00:05:12.96 bitrate=1065.4kbits/s speed=   1x    frame= 7836 fps= 25 q=28.0 size=   40774kB time=00:05:13.45 bitrate=1065.6kbits/s speed=   1x    frame= 7848 fps= 25 q=28.0 size=   40833kB time=00:05:13.94 bitrate=1065.5kbits/s speed=   1x    frame= 7860 fps= 25 q=28.0 size=   40918kB time=00:05:14.36 bitrate=1066.3kbits/s speed=0.999x    frame= 7873 fps= 25 q=28.0 size=   40991kB time=00:05:14.92 bitrate=1066.3kbits/s speed=   1x    frame= 7886 fps= 25 q=28.0 size=   41105kB time=00:05:15.47 bitrate=1067.4kbits/s speed=   1x    frame= 7898 fps= 25 q=28.0 size=   41168kB time=00:05:15.94 bitrate=1067.4kbits/s speed=   1x    frame= 7911 fps= 25 q=28.0 size=   41242kB time=00:05:16.43 bitrate=1067.7kbits/s speed=   1x    frame= 7924 fps= 25 q=28.0 size=   41319kB time=00:05:16.99 bitrate=1067.8kbits/s speed=   1x    frame= 7937 fps= 25 q=28.0 size=   41370kB time=00:05:17.48 bitrate=1067.5kbits/s speed=   1x    frame= 7949 fps= 25 q=28.0 size=   41442kB time=00:05:17.97 bitrate=1067.7kbits/s speed=   1x    frame= 7962 fps= 25 q=28.0 size=   41491kB time=00:05:18.52 bitrate=1067.1kbits/s speed=   1x    frame= 7974 fps= 25 q=28.0 size=   41555kB time=00:05:19.01 bitrate=1067.1kbits/s speed=   1x    frame= 7987 fps= 25 q=28.0 size=   41593kB time=00:05:19.51 bitrate=1066.4kbits/s speed=   1x    frame= 8000 fps= 25 q=28.0 size=   41631kB time=00:05:20.06 bitrate=1065.5kbits/s speed=   1x    frame= 8012 fps= 25 q=28.0 size=   41690kB time=00:05:20.51 bitrate=1065.6kbits/s speed=   1x    frame= 8025 fps= 25 q=28.0 size=   41722kB time=00:05:21.04 bitrate=1064.6kbits/s speed=   1x    frame= 8038 fps= 25 q=28.0 size=   41769kB time=00:05:21.55 bitrate=1064.1kbits/s speed=   1x    frame= 8050 fps= 25 q=28.0 size=   41816kB time=00:05:22.07 bitrate=1063.6kbits/s speed=   1x    frame= 8063 fps= 25 q=28.0 size=   41861kB time=00:05:22.58 bitrate=1063.1kbits/s speed=   1x    frame= 8075 fps= 25 q=28.0 size=   41913kB time=00:05:23.05 bitrate=1062.8kbits/s speed=   1x    frame= 8088 fps= 25 q=28.0 size=   41959kB time=00:05:23.54 bitrate=1062.4kbits/s speed=   1x    frame= 8101 fps= 25 q=28.0 size=   42011kB time=00:05:24.09 bitrate=1061.9kbits/s speed=   1x    frame= 8113 fps= 25 q=28.0 size=   42059kB time=00:05:24.52 bitrate=1061.7kbits/s speed=   1x    frame= 8126 fps= 25 q=28.0 size=   42103kB time=00:05:25.07 bitrate=1061.0kbits/s speed=   1x    frame= 8139 fps= 25 q=28.0 size=   42157kB time=00:05:25.59 bitrate=1060.7kbits/s speed=   1x    frame= 8151 fps= 25 q=28.0 size=   42216kB time=00:05:26.10 bitrate=1060.5kbits/s speed=   1x    frame= 8164 fps= 25 q=28.0 size=   42269kB time=00:05:26.59 bitrate=1060.2kbits/s speed=   1x    frame= 8176 fps= 25 q=25.0 size=   42330kB time=00:05:27.08 bitrate=1060.2kbits/s speed=   1x    frame= 8189 fps= 25 q=28.0 size=   42411kB time=00:05:27.57 bitrate=1060.6kbits/s speed=   1x    frame= 8201 fps= 25 q=28.0 size=   42483kB time=00:05:28.08 bitrate=1060.8kbits/s speed=   1x    frame= 8214 fps= 25 q=28.0 size=   42570kB time=00:05:28.59 bitrate=1061.3kbits/s speed=   1x    frame= 8227 fps= 25 q=28.0 size=   42656kB time=00:05:29.11 bitrate=1061.8kbits/s speed=   1x    frame= 8239 fps= 25 q=28.0 size=   42710kB time=00:05:29.57 bitrate=1061.6kbits/s speed=   1x    frame= 8252 fps= 25 q=28.0 size=   42804kB time=00:05:30.13 bitrate=1062.2kbits/s speed=   1x    frame= 8264 fps= 25 q=28.0 size=   42853kB time=00:05:30.60 bitrate=1061.9kbits/s speed=   1x    frame= 8277 fps= 25 q=28.0 size=   42925kB time=00:05:31.09 bitrate=1062.1kbits/s speed=   1x    frame= 8290 fps= 25 q=28.0 size=   42975kB time=00:05:31.62 bitrate=1061.6kbits/s speed=   1x    frame= 8302 fps= 25 q=25.0 size=   43023kB time=00:05:32.11 bitrate=1061.2kbits/s speed=   1x    frame= 8315 fps= 25 q=28.0 size=   43093kB time=00:05:32.58 bitrate=1061.4kbits/s speed=   1x    frame= 8327 fps= 25 q=28.0 size=   43139kB time=00:05:33.09 bitrate=1060.9kbits/s speed=   1x    frame= 8340 fps= 25 q=28.0 size=   43211kB time=00:05:33.61 bitrate=1061.1kbits/s speed=   1x    frame= 8353 fps= 25 q=28.0 size=   43262kB time=00:05:34.16 bitrate=1060.5kbits/s speed=   1x    frame= 8365 fps= 25 q=28.0 size=   43309kB time=00:05:34.63 bitrate=1060.2kbits/s speed=   1x    frame= 8378 fps= 25 q=28.0 size=   43376kB time=00:05:35.14 bitrate=1060.2kbits/s speed=   1x    frame= 8390 fps= 25 q=28.0 size=   43430kB time=00:05:35.65 bitrate=1059.9kbits/s speed=   1x    frame= 8403 fps= 25 q=28.0 size=   43509kB time=00:05:36.19 bitrate=1060.2kbits/s speed=   1x    frame= 8416 fps= 25 q=28.0 size=   43561kB time=00:05:36.66 bitrate=1060.0kbits/s speed=   1x    frame= 8428 fps= 25 q=28.0 size=   43630kB time=00:05:37.15 bitrate=1060.1kbits/s speed=   1x    frame= 8441 fps= 25 q=28.0 size=   43667kB time=00:05:37.64 bitrate=1059.5kbits/s speed=   1x    frame= 8453 fps= 25 q=28.0 size=   43695kB time=00:05:38.15 bitrate=1058.5kbits/s speed=   1x    frame= 8466 fps= 25 q=28.0 size=   43752kB time=00:05:38.68 bitrate=1058.2kbits/s speed=   1x    frame= 8479 fps= 25 q=28.0 size=   43780kB time=00:05:39.17 bitrate=1057.4kbits/s speed=   1x    frame= 8491 fps= 25 q=28.0 size=   43834kB time=00:05:39.69 bitrate=1057.1kbits/s speed=   1x    frame= 8504 fps= 25 q=28.0 size=   43884kB time=00:05:40.22 bitrate=1056.7kbits/s speed=   1x    frame= 8517 fps= 25 q=28.0 size=   43962kB time=00:05:40.69 bitrate=1057.1kbits/s speed=   1x    frame= 8529 fps= 25 q=28.0 size=   44014kB time=00:05:41.20 bitrate=1056.7kbits/s speed=   1x    frame= 8542 fps= 25 q=25.0 size=   44072kB time=00:05:41.71 bitrate=1056.5kbits/s speed=   1x    frame= 8546 fps= 25 q=-1.0 Lsize=   44230kB time=00:05:41.91 bitrate=1059.7kbits/s speed=0.998x    
video:38364kB audio:5433kB subtitle:0kB other streams:0kB global headers:0kB muxing overhead: 0.989533%
[libx264 @ 0x55b0f157ab20] frame I:377   Avg QP:19.18  size: 22138
[libx264 @ 0x55b0f157ab20] frame P:8169  Avg QP:23.06  size:  3787
[libx264 @ 0x55b0f157ab20] mb I  I16..4: 34.3%  0.0% 65.7%
[libx264 @ 0x55b0f157ab20] mb P  I16..4:  2.4%  0.0%  1.5%  P16..4: 43.7% 10.7%  4.0%  0.0%  0.0%    skip:37.6%
[libx264 @ 0x55b0f157ab20] coded y,uvDC,uvAC intra: 53.0% 79.9% 51.1% inter: 16.6% 33.1% 4.0%
[libx264 @ 0x55b0f157ab20] i16 v,h,dc,p: 56% 19% 13% 11%
[libx264 @ 0x55b0f157ab20] i4 v,h,dc,ddl,ddr,vr,hd,vl,hu: 28% 23% 14%  6%  6%  6%  6%  6%  6%
[libx264 @ 0x55b0f157ab20] i8c dc,h,v,p: 45% 22% 25%  9%
[libx264 @ 0x55b0f157ab20] ref P L0: 85.0%  9.6%  5.4%
[libx264 @ 0x55b0f157ab20] kb/s:919.35
[aac @ 0x55b0f1602de0] Qavg: 471.530
Exiting normally, received signal 15.
